<svg height="54" viewBox="0 0 54 54" width="54" xmlns="http://www.w3.org/2000/svg"><path d="m44.585985 37.512247c1.661681-8.548609-3.969195-11.466073-3.969195-11.466073s4.606011-.563029 5.653098-5.949824-2.62236-9.016756-6.603904-9.79069c-.117104-.02276-.351312-.06829-.468417-.09105l1.365766-7.0262557-4.68417-.9105104-1.365765 7.0262543c-1.522356-.2959159-3.044711-.5918317-4.68417-.9105104l1.365765-7.0262543-4.68417-.91051034-1.365765 7.02625424c-1.288146-.2503902-10.539381-2.0486483-10.539381-2.0486483l-1.138138 5.8552119 4.684169.910511-4.780179 24.59189-4.6841696-.910511-1.1381381 5.855213 10.5393817 2.048648-1.365766 7.026254 4.68417.91051 1.365765-7.026253 4.68417.91051-1.365765 7.026254 4.68417.91051 1.388528-7.143358c3.418785.543016 10.805954-.57317 12.42211-8.887572zm-20.696169-24.19672 12.295945 2.390089c.81973.15934 3.815624.377096 2.905113 5.061266-.842222 4.332856-4.61561 3.113268-4.61561 3.113268l-12.178841-2.367327zm8.446019 25.947514-12.998571-2.526666 1.593393-8.197297 12.998571 2.526666c.936834.182102 4.095358.188413 3.139322 5.106791-.793406 4.706932-4.732715 3.090506-4.732715 3.090506z" fill="#f7ac31"/></svg>