<svg enable-background="new 0 0 600 600" height="54" viewBox="0 0 54 54" width="54" xmlns="http://www.w3.org/2000/svg" xmlns:xlink="http://www.w3.org/1999/xlink"><linearGradient id="a" gradientUnits="userSpaceOnUse" x1="12.55118788665" x2="44.914955105304" y1="5.13362103387" y2="54.111948967479"><stop offset=".005128205" stop-color="#f1d200"/><stop offset="1" stop-color="#d27d00"/></linearGradient><circle cx="27" cy="27" fill="#fff" r="23.654118"/><path d="m27 0c-14.908235 0-27 12.091765-27 27s12.091765 27 27 27 27-12.091765 27-27-12.091765-27-27-27zm0 47.784706c-11.477647 0-20.7847059-9.307059-20.7847059-20.784706s9.3070589-20.7847059 20.7847059-20.7847059 20.784706 9.3070589 20.784706 20.7847059-9.307059 20.784706-20.784706 20.784706z" fill="url(#a)"/><g fill="#132365" transform="matrix(.10588235 0 0 .10588235 -4.764706 -4.764706)"><path d="m215 387.2 9.8-19.6h117.7c16.2 0 29.4-13.2 29.4-29.4s-13.2-29.4-29.4-29.4h-98.1v-19.6h98.1c27.1 0 49 22 49 49 0 27.1-22 49-49 49z"/><path d="m342.5 392.6h-136.3l15.3-30.5h121.1c13.2 0 24-10.8 24-24s-10.8-24-24-24h-103.6v-30.5h103.5c30 0 54.5 24.4 54.5 54.5s-24.5 54.5-54.5 54.5zm-118.7-10.9h118.7c24 0 43.6-19.6 43.6-43.6s-19.6-43.6-43.6-43.6h-92.6v8.7h92.6c19.2 0 34.9 15.6 34.9 34.9 0 19.2-15.6 34.9-34.9 34.9h-114.3z"/><path d="m215 209.6 9.8 19.6h104.6c16.2 0 29.4 13.2 29.4 29.4s-13.2 29.4-29.4 29.4h-75.2v19.6h75.2c27.1 0 49-22 49-49 0-27.1-22-49-49-49z"/><path d="m329.4 313.1h-80.6v-30.5h80.6c13.2 0 24-10.8 24-24s-10.8-24-24-24h-108l-15.3-30.5h123.2c30 0 54.5 24.4 54.5 54.5.1 30-24.3 54.5-54.4 54.5zm-69.7-10.9h69.7c24 0 43.6-19.6 43.6-43.6s-19.5-43.6-43.6-43.6h-105.6l4.4 8.7h101.2c19.2 0 34.9 15.6 34.9 34.9s-15.6 34.9-34.9 34.9h-69.7z"/><path d="m244.4 210.6h19.6v176.5h-19.6z"/><path d="m269.5 392.6h-30.5v-187.4h30.5zm-19.6-10.9h8.7v-165.6h-8.7z"/><path d="m268.4 180.1h19.6v39.2h-19.6z"/><path d="m290.7 222.1h-25.1v-44.7h25.1zm-19.6-5.5h14.2v-33.8h-14.2z"/><path d="m310.9 180.1h19.6v39.2h-19.6z"/><path d="m333.2 222.1h-25.1v-44.7h25.1zm-19.6-5.5h14.2v-33.8h-14.2z"/><path d="m268.4 376.3h19.6v39.2h-19.6z"/><path d="m290.7 418.2h-25.1v-44.7h25.1zm-19.6-5.4h14.2v-33.8h-14.2z"/><path d="m310.9 376.3h19.6v39.2h-19.6z"/><path d="m333.2 418.2h-25.1v-44.7h25.1zm-19.6-5.4h14.2v-33.8h-14.2z"/><path d="m300 473.8c-95.8 0-173.8-77.9-173.8-173.8 0-95.8 77.9-173.8 173.8-173.8 95.8 0 173.8 77.9 173.8 173.8 0 95.8-78 173.8-173.8 173.8zm0-330.2c-86.2 0-156.4 70.2-156.4 156.4s70.2 156.4 156.4 156.4 156.4-70.2 156.4-156.4-70.2-156.4-156.4-156.4z"/></g></svg>