<svg height="54" viewBox="0 0 54 54" width="54" xmlns="http://www.w3.org/2000/svg"><path d="m53.927139 26.924105c.176617 1.08914.02944 2.207716-.412107 3.208547l-4.856975 15.277393c-.441543 1.059704-.971395 2.060536-1.618991 3.031931-.765342.971395-1.648429 1.85448-2.619824 2.619822-1.000831.824214-2.178279 1.412938-3.208546 2.001662-1.02843.380431-2.112389.589268-3.208547.618161h-36.7952644l2.6198229-7.859468h33.1746095l5.239646-16.072172h-33.1746102l2.6198232-7.859468h36.618646c.971395-.02944 1.94279.176617 2.825877.61816.85365.323799 1.589555.971395 2.001662 1.795609.470979.794778.735906 1.7073.794778 2.619823zm-31.791108 7.211872-2.41377 7.270744h-19.722261l2.6198228-7.270744z" fill="#1e75bb" transform="translate(0 -10.784687)"/></svg>