<svg height="54" viewBox="0 0 42.11784 42.129446" width="54" xmlns="http://www.w3.org/2000/svg" xmlns:xlink="http://www.w3.org/1999/xlink"><clipPath id="a"><path d="m720.6 306.4h508.7v266h-508.7z" height="100%" transform="" width="100%"/></clipPath><clipPath id="b"><path d="m720.6 0h254.4v572.4h-254.4z" height="100%" transform="" width="100%"/></clipPath><clipPath id="c"><path d="m975 0h254.4v572.4h-254.4z" height="100%" transform="" width="100%"/></clipPath><clipPath id="d"><path d="m720.6 470.3h254.4v358.4h-254.4z" height="100%" transform="" width="100%"/></clipPath><clipPath id="e"><path d="m975 470.3h254.5v358.4h-254.5z" height="100%" transform="" width="100%"/></clipPath><g fill="#010101"><path clip-path="url(#a)" d="m975 306.4-254.4 115.7 254.4 150.3 254.3-150.3z" opacity=".6" transform="matrix(.05083799 0 0 .05083799 -28.510662 0)"/><path clip-path="url(#b)" d="m720.6 422.1 254.4 150.3v-572.4z" opacity=".45" transform="matrix(.05083799 0 0 .05083799 -28.510662 0)"/><path clip-path="url(#c)" d="m975 0v572.4l254.3-150.3z" opacity=".8" transform="matrix(.05083799 0 0 .05083799 -28.510662 0)"/><path clip-path="url(#d)" d="m720.6 470.3 254.4 358.4v-208.1z" opacity=".45" transform="matrix(.05083799 0 0 .05083799 -28.510662 0)"/><path clip-path="url(#e)" d="m975 620.6v208.1l254.5-358.4z" opacity=".8" transform="matrix(.05083799 0 0 .05083799 -28.510662 0)"/></g></svg>