<svg height="54" viewBox=".847 .876 7.1118864 7.1119296" width="54" xmlns="http://www.w3.org/2000/svg"><path d="m7.9599292 4.431939c0 1.9639151-1.5920376 3.5559863-3.555943 3.5559863-1.963927 0-3.5559862-1.5920712-3.5559862-3.5559863 0-1.9638936 1.5920592-3.55594321 3.5559862-3.55594321 1.9638838 0 3.555943 1.59204961 3.555943 3.55594321" fill="#bebebe"/><path d="m7.2049615 4.4319822c0 1.5468407-1.2540388 2.8009799-2.8009753 2.8009799-1.5469149 0-2.8010401-1.2541392-2.8010401-2.8009799 0-1.5469704 1.2541252-2.8010232 2.8010401-2.8010232 1.5469581 0 2.8009753 1.2540312 2.8009753 2.8010232" fill="#bebebe"/><path d="m4.1961498 5.3818854.2309701-.8697024.5468289-.1997784.1360161-.5111208-.0046441-.0126792-.5382752.1966464.3878303-1.4603328h-1.0999002l-.5071927 1.905768-.4234705.1546992-.1399256.526932.4231465-.1545696-.2989242 1.1231567h2.9272712l.1876619-.6990191z" fill="#fff"/></svg>