<?xml version="1.0" encoding="utf-8"?>
<!-- Generator: Adobe Illustrator 21.0.0, SVG Export Plug-In . SVG Version: 6.00 Build 0)  -->
<svg version="1.1" id="Capa_1" xmlns="http://www.w3.org/2000/svg" xmlns:xlink="http://www.w3.org/1999/xlink" x="0px" y="0px"
	 viewBox="-49 141 512 512" style="enable-background:new -49 141 512 512;" xml:space="preserve">
<style type="text/css">
	.st0{fill:#FFFFFF;}
</style>
<path class="st0" d="M431,301H329.8c7.3-5,13.5-9.9,17.9-14.3c25.8-26,25.8-68.2,0-94.1c-25.1-25.2-68.8-25.2-93.9,0
	c-13.9,13.9-50.7,70.6-45.6,108.4h-2.3c5.1-37.9-31.7-94.5-45.6-108.4c-25.1-25.2-68.8-25.2-93.9,0c-25.8,26-25.8,68.2,0,94.1
	c4.4,4.4,10.6,9.3,17.9,14.3H-17c-17.6,0-32,14.4-32,32v80c0,8.8,7.2,16,16,16h16v192c0,17.6,14.4,32,32,32h384
	c17.6,0,32-14.4,32-32V429h16c8.8,0,16-7.2,16-16v-80C463,315.4,448.6,301,431,301z M240.9,299.9c-7.4-7.7,14-63.1,35.6-84.8
	c13-13,35.5-13,48.5,0c13.4,13.5,13.4,35.5,0,49c-13.8,13.9-56,36.9-78.1,36.9C242.2,301,240.9,300,240.9,299.9z M89.1,264.1
	c-13.4-13.5-13.4-35.5,0-49c6.5-6.5,15.1-10.1,24.3-10.1c9.1,0,17.7,3.6,24.2,10.1c21.6,21.7,43,77.1,35.6,84.8c0,0-1.3,1.1-5.9,1.1
	C145.1,301,102.9,278,89.1,264.1z M-17,333h184.2H191v64H-17V333z M15,429h176v192H15V429z M399,621H223V429h176V621z M431,397H223
	v-64h23.8H431V397z"/>
</svg>
