<?xml version="1.0" encoding="iso-8859-1"?>
<!-- Generator: Adobe Illustrator 21.0.0, SVG Export Plug-In . SVG Version: 6.00 Build 0)  -->
<svg version="1.1" id="Layer_1" xmlns="http://www.w3.org/2000/svg" xmlns:xlink="http://www.w3.org/1999/xlink" x="0px" y="0px"
	 viewBox="0 0 612 792" style="enable-background:new 0 0 612 792;" xml:space="preserve">
<g>
	<rect x="81.191" y="325.916" style="fill:#4088C8;" width="215.267" height="138.168"/>
	<rect x="296.458" y="325.916" style="fill:#8199A4;" width="234.351" height="138.168"/>
	<path style="fill:#FFFFFF;" d="M117.466,430.027v-68.054h10.683v68.054H117.466z"/>
	<path style="fill:#FFFFFF;" d="M132.339,371.809v-9.836h32.285v9.836h-10.918v58.218h-10.495v-58.218H132.339z"/>
	<path style="fill:#FFFFFF;" d="M168.847,430.152v-68.054h10.401v58.218h16.284v9.836H168.847z"/>
	<path style="fill:#FFFFFF;" d="M198.426,430.027l11.201-68.054h13.696l11.154,68.054h-10.778l-2.118-14.731h-10.589l-2.259,14.731
		H198.426z M212.309,405.648h8.001l-3.577-28.425h-0.659L212.309,405.648z"/>
	<path style="fill:#FFFFFF;" d="M237.642,430.027v-68.054h13.883c5.585,0,9.899,1.546,12.943,4.635
		c3.043,3.092,4.565,7.46,4.565,13.108c0,3.389-0.596,6.361-1.788,8.919c-1.193,2.557-3.028,4.761-5.506,6.612
		c2.792,1.599,4.855,3.74,6.189,6.423c1.333,2.683,2,6.064,2,10.143c0,6.212-1.365,10.8-4.095,13.765
		c-2.73,2.965-6.965,4.448-12.707,4.448H237.642z M248.042,390.305h4.236c1.913,0,3.404-0.815,4.471-2.447
		c1.066-1.632,1.6-3.922,1.6-6.872c0-3.231-0.541-5.568-1.624-7.013c-1.082-1.443-2.848-2.165-5.294-2.165h-3.389V390.305z
		 M248.042,420.191h4.518c2.259,0,3.914-0.784,4.965-2.354c1.051-1.568,1.577-4.031,1.577-7.389c0-3.702-0.588-6.345-1.765-7.93
		c-1.176-1.584-3.146-2.377-5.906-2.377h-3.389V420.191z"/>
	<path style="fill:#FFFFFF;" d="M322.649,430.027v-68.054h13.884c5.583,0,9.898,1.546,12.941,4.635
		c3.043,3.092,4.566,7.46,4.566,13.108c0,3.389-0.596,6.361-1.788,8.919c-1.193,2.557-3.028,4.761-5.506,6.612
		c2.792,1.599,4.854,3.74,6.189,6.423c1.333,2.683,2,6.064,2,10.143c0,6.212-1.364,10.8-4.093,13.765
		c-2.73,2.965-6.965,4.448-12.708,4.448H322.649z M333.05,390.305h4.235c1.914,0,3.405-0.815,4.471-2.447
		c1.066-1.632,1.601-3.922,1.601-6.872c0-3.231-0.542-5.568-1.624-7.013c-1.082-1.443-2.847-2.165-5.294-2.165h-3.389V390.305z
		 M333.05,420.191h4.518c2.259,0,3.913-0.784,4.965-2.354c1.051-1.568,1.577-4.031,1.577-7.389c0-3.702-0.588-6.345-1.765-7.93
		c-1.177-1.584-3.146-2.377-5.907-2.377h-3.389V420.191z"/>
	<path style="fill:#FFFFFF;" d="M361.5,430.027v-68.054h27.391v9.836h-16.896v17.838h12.176v9.836h-12.176v20.332h16.896v10.212
		H361.5z"/>
	<path style="fill:#FFFFFF;" d="M396.986,430.027v-68.054h10.401v58.218h16.284v9.836H396.986z"/>
	<path style="fill:#FFFFFF;" d="M428.283,377.692c0-5.365,1.459-9.569,4.377-12.612c2.918-3.043,6.949-4.566,12.095-4.566
		c4.863,0,8.714,1.561,11.555,4.682c2.838,3.123,4.259,7.382,4.259,12.779v34.874c0,5.961-1.404,10.558-4.213,13.789
		c-2.807,3.232-6.8,4.848-11.977,4.848c-5.24,0-9.232-1.608-11.977-4.824c-2.746-3.216-4.118-7.913-4.118-14.096V377.692z
		 M449.79,415.014v-37.98c0-2.352-0.455-4.118-1.364-5.294c-0.911-1.177-2.259-1.766-4.047-1.766c-1.788,0-3.138,0.589-4.047,1.766
		c-0.911,1.176-1.365,2.941-1.365,5.294v37.98c0,2.352,0.454,4.126,1.365,5.317c0.91,1.193,2.259,1.789,4.047,1.789
		c1.788,0,3.137-0.596,4.047-1.789C449.335,419.14,449.79,417.366,449.79,415.014z"/>
	<path style="fill:#FFFFFF;" d="M465.651,361.973h10.261l6.259,40.287c0.406,2.572,0.697,4.996,0.87,7.271
		c0.173,2.275,0.334,2.344,0.334,2.344s0.168-0.006,0.372-2.626s0.447-4.95,0.729-6.989l6.072-40.287h10.307l-12.049,68.054H477.84
		L465.651,361.973z"/>
</g>
</svg>
