<svg id="Layer_1" data-name="Layer 1" xmlns="http://www.w3.org/2000/svg" viewBox="0 0 40 40"><defs><style>.cls-1{fill:#ddab14;}</style></defs><title>Artboard 2 copy 2icon</title><path class="cls-1" d="M28,2H12A10,10,0,0,0,2,12V28A10,10,0,0,0,12,38H28A10,10,0,0,0,38,28V12A10,10,0,0,0,28,2Zm7,26a7,7,0,0,1-7,7H12a7,7,0,0,1-7-7V12a7,7,0,0,1,7-7H28a7,7,0,0,1,7,7Z"/><path class="cls-1" d="M20.63,16H20a.33.33,0,0,0-.34.34v3.73H17.24a.33.33,0,0,0-.34.34v.68a.33.33,0,0,0,.34.34h3.39a.33.33,0,0,0,.34-.34V16.37A.33.33,0,0,0,20.63,16Z"/><path class="cls-1" d="M20,11.86A8.14,8.14,0,1,0,28.14,20,8.14,8.14,0,0,0,20,11.86Zm0,13.91A5.77,5.77,0,1,1,25.77,20,5.78,5.78,0,0,1,20,25.77Z"/></svg>