<svg id="Layer_1" data-name="Layer 1" xmlns="http://www.w3.org/2000/svg" viewBox="0 0 40 40"><defs><style>.cls-1{fill:#ddab14;}</style></defs><title>Artboard 2icon</title><path class="cls-1" d="M28,2H12A10,10,0,0,0,2,12V28A10,10,0,0,0,12,38H28A10,10,0,0,0,38,28V12A10,10,0,0,0,28,2Zm7,26a7,7,0,0,1-7,7H12a7,7,0,0,1-7-7V12a7,7,0,0,1,7-7H28a7,7,0,0,1,7,7Z"/><path class="cls-1" d="M26.32,14.05a1,1,0,0,0-1.44,0l-7,7L14.8,17.89a1,1,0,0,0-.72-.3,1,1,0,0,0-.72.3l-1.44,1.44a1,1,0,0,0,0,1.44l3.84,3.84,1.44,1.44a1,1,0,0,0,1.44,0l1.44-1.44,7.68-7.68a1,1,0,0,0,0-1.44Z"/></svg>