<svg id="Layer_1" data-name="Layer 1" xmlns="http://www.w3.org/2000/svg" viewBox="0 0 40 40"><defs><style>.cls-1{fill:#ddab14;}</style></defs><title>Artboard 2 copyicon</title><path class="cls-1" d="M27.22,19.67,13.13,11.85c-.33-.18-.59,0-.59.35V27.81c0,.37.27.53.59.35l14.08-7.83C27.54,20.15,27.54,19.85,27.22,19.67Z"/><path class="cls-1" d="M28,2H12A10,10,0,0,0,2,12V28A10,10,0,0,0,12,38H28A10,10,0,0,0,38,28V12A10,10,0,0,0,28,2Zm7,26a7,7,0,0,1-7,7H12a7,7,0,0,1-7-7V12a7,7,0,0,1,7-7H28a7,7,0,0,1,7,7Z"/></svg>