<?xml version="1.0" encoding="iso-8859-1"?>
<!-- Generator: Adobe Illustrator 21.0.0, SVG Export Plug-In . SVG Version: 6.00 Build 0)  -->
<svg version="1.1" id="Layer_1" xmlns="http://www.w3.org/2000/svg" xmlns:xlink="http://www.w3.org/1999/xlink" x="0px" y="0px"
	 viewBox="0 0 70 70" style="enable-background:new 0 0 70 70;" xml:space="preserve">
<rect x="-671.2" y="-296.548" style="display:none;fill:#606060;" width="1366" height="768"/>
<g>
	<path style="fill:#8199A4;" d="M22.944,17.798c-2.797,1.939-4.979,4.401-6.545,7.385c-1.642,3.058-2.461,6.341-2.461,9.846
		c0,3.506,0.82,6.788,2.461,9.846c1.566,2.984,3.749,5.446,6.545,7.385H7V17.798H22.944z M42.329,19.364
		c2.294,1.082,4.261,2.593,5.902,4.531c1.678,1.978,2.833,4.252,3.468,6.825c0.783,3.021,0.746,6.023-0.112,9.007
		c-0.821,2.872-2.313,5.371-4.476,7.496c-2.201,2.201-4.811,3.684-7.832,4.448c-3.021,0.764-6.023,0.718-9.007-0.14
		c-2.909-0.82-5.427-2.313-7.553-4.476c-2.164-2.2-3.636-4.812-4.419-7.833c-0.783-3.021-0.747-6.022,0.112-9.007
		c0.82-2.909,2.312-5.407,4.476-7.496c2.2-2.2,4.811-3.692,7.832-4.476c1.417-0.336,2.853-0.504,4.308-0.504
		C37.602,17.741,40.035,18.282,42.329,19.364z M32.455,24.008l0.895,3.3l-1.623,0.392l-0.839-3.3l-2.07,0.559l0.895,3.301
		l-4.084,1.007l0.56,2.183l1.175-0.336c0.596-0.148,1.007-0.148,1.23,0c0.149,0.111,0.261,0.224,0.336,0.336
		c0.074,0.111,0.148,0.299,0.224,0.56l2.182,8.559c0.075,0.262,0.056,0.476-0.056,0.644s-0.355,0.308-0.728,0.42l-1.23,0.279
		l0.224,2.573l4.028-1.007l0.839,3.301l2.07-0.56l-0.839-3.301l1.566-0.392l0.839,3.301l2.07-0.503l-0.839-3.356
		c0.56-0.187,0.988-0.336,1.287-0.448h0.056c1.23-0.484,2.163-1.118,2.797-1.902c0.484-0.559,0.764-1.192,0.839-1.901
		c0.074-0.597,0.018-1.287-0.168-2.07c-0.299-1.268-0.951-2.106-1.958-2.518c-0.335-0.148-0.747-0.261-1.231-0.335h-0.671
		c0.484-0.484,0.801-0.914,0.951-1.287c0.224-0.521,0.28-1.119,0.168-1.79c-0.112-0.448-0.261-0.876-0.448-1.287
		c-0.373-0.671-0.876-1.137-1.51-1.398c-1.082-0.447-2.406-0.504-3.972-0.168l-0.895-3.356L32.455,24.008z M35.755,29.434
		c0.447,0.038,0.83,0.168,1.146,0.392s0.532,0.523,0.644,0.896c0.224,0.709,0.084,1.306-0.419,1.79
		c-0.503,0.485-1.185,0.839-2.042,1.063l-1.734,0.447l-1.007-3.973c0.447-0.148,0.876-0.279,1.287-0.392
		c0.708-0.148,1.305-0.224,1.79-0.224H35.755z M38.608,35.42c0.82,0.188,1.323,0.635,1.51,1.343c0.112,0.447,0.093,0.858-0.056,1.23
		c-0.112,0.224-0.299,0.467-0.56,0.728c-0.485,0.447-1.23,0.839-2.238,1.175c-0.373,0.112-0.858,0.243-1.455,0.392l-0.783,0.224
		l-1.119-4.42c0.857-0.26,1.622-0.466,2.293-0.615c0.484-0.074,0.97-0.111,1.455-0.111C38.03,35.364,38.347,35.383,38.608,35.42z
		 M63,17.798v34.461H47.056c2.797-1.938,4.979-4.4,6.545-7.385c1.641-3.058,2.461-6.34,2.461-9.846c0-3.505-0.821-6.788-2.461-9.846
		c-1.566-2.983-3.749-5.445-6.545-7.385H63z"/>
</g>
</svg>
