<?xml version="1.0" encoding="iso-8859-1"?>
<!-- Generator: Adobe Illustrator 21.0.0, SVG Export Plug-In . SVG Version: 6.00 Build 0)  -->
<svg version="1.1" id="Layer_1" xmlns="http://www.w3.org/2000/svg" xmlns:xlink="http://www.w3.org/1999/xlink" x="0px" y="0px"
	 viewBox="0 0 70 70" style="enable-background:new 0 0 70 70;" xml:space="preserve">
<rect x="-917.867" y="-296.548" style="display:none;fill:#606060;" width="1366" height="768"/>
<g>
	<path style="fill:#0390F4;" d="M50.598,37.157c0.449,1.02,0.659,2.203,0.629,3.552c-0.03,1.618-0.24,2.982-0.629,4.091
		c-0.51,1.379-1.364,2.488-2.563,3.327c-1.079,0.748-2.293,1.318-3.642,1.708c-0.78,0.209-1.693,0.39-2.742,0.539h-0.09
		c-0.629,0.061-1.544,0.136-2.742,0.226v6.878h-4.226v-6.788h-3.236v6.788h-4.271v-6.788H18.77l0.854-5.08h2.518
		c0.449,0,0.779-0.029,0.989-0.09c0.209-0.06,0.405-0.165,0.584-0.314c0.299-0.3,0.45-0.734,0.45-1.304V26.368
		c0-0.568-0.038-0.974-0.113-1.214c-0.075-0.239-0.232-0.494-0.472-0.764c-0.39-0.42-1.185-0.63-2.383-0.63H18.77v-4.405h8.316
		v-6.833h4.271v6.833h3.236v-6.833h4.226V19.4c1.648,0.12,3.057,0.345,4.226,0.675c1.259,0.359,2.383,0.914,3.372,1.663
		c1.139,0.839,1.888,2.008,2.248,3.506c0.209,0.87,0.27,1.77,0.18,2.697c-0.03,0.48-0.135,1.02-0.315,1.619
		c-0.21,0.719-0.472,1.296-0.787,1.73c-0.314,0.435-0.817,0.907-1.506,1.416l-0.944,0.63l0.584,0.18
		c0.479,0.12,0.929,0.285,1.349,0.494c0.599,0.24,1.124,0.524,1.573,0.854C49.548,35.465,50.148,36.229,50.598,37.157z
		 M31.357,32.348h1.168c0.929,0,1.708,0,2.338,0c1.768-0.09,3.237-0.45,4.405-1.079c1.259-0.689,1.858-1.768,1.798-3.236
		c0-0.779-0.247-1.477-0.742-2.091s-1.177-1.057-2.045-1.326c-0.78-0.239-1.544-0.404-2.292-0.494c-0.48-0.03-1.14-0.061-1.978-0.09
		c-0.54,0-1.154,0.015-1.843,0.045c-0.27,0.029-0.54,0.045-0.809,0.045V32.348z M42.281,43.271C42.76,42.673,43,41.908,43,40.979
		c0-1.498-0.735-2.622-2.203-3.371c-0.45-0.21-1.064-0.42-1.843-0.63c-0.899-0.209-1.829-0.344-2.787-0.404
		c-0.899-0.06-1.963-0.09-3.192-0.09l-1.618,0.09v9.081c1.858,0.061,3.417,0.03,4.675-0.09c0.958-0.06,1.88-0.194,2.765-0.405
		c0.883-0.209,1.565-0.449,2.045-0.719C41.472,44.081,41.951,43.691,42.281,43.271z"/>
</g>
</svg>
