<?xml version="1.0" encoding="iso-8859-1"?>
<!-- Generator: Adobe Illustrator 21.0.0, SVG Export Plug-In . SVG Version: 6.00 Build 0)  -->
<svg version="1.1" id="Layer_1" xmlns="http://www.w3.org/2000/svg" xmlns:xlink="http://www.w3.org/1999/xlink" x="0px" y="0px"
	 viewBox="0 0 70 70" style="enable-background:new 0 0 70 70;" xml:space="preserve">
<rect x="-587.2" y="-296.548" style="display:none;fill:#606060;" width="1366" height="768"/>
<g>
	<g>
		<path style="fill:#8199A4;" d="M50.107,34.694c0.002,8.604-6.782,15.411-15.361,15.413c-8.666,0.001-15.416-6.787-15.41-15.497
			c0.006-8.535,6.849-15.279,15.496-15.273C43.314,19.342,50.105,26.17,50.107,34.694z M34.718,48.474
			c7.631,0.001,13.756-6.121,13.756-13.749c0.001-7.631-6.121-13.756-13.749-13.756c-7.631-0.001-13.756,6.121-13.756,13.749
			C20.968,42.349,27.09,48.474,34.718,48.474z"/>
		<path style="fill:#8199A4;" d="M29.202,28.951c-2.157,0.318-1.897-1.571-2.785-2.71c1.842,0,3.466,0,5.217,0
			c0.05-0.843,0.094-1.589,0.142-2.408c0.744,0,1.412,0,2.216,0c0.051,0.718,0.103,1.433,0.162,2.257c0.407,0,0.821,0,1.304,0
			c0.041-0.749,0.08-1.464,0.124-2.255c0.682,0,1.305,0,2.083,0c0,0.715,0,1.465,0,2.165c4.28,1.398,5.539,4.185,3.663,8.002
			c1.781,1.594,2.66,3.539,1.687,5.932c-0.923,2.271-2.759,3.159-5.208,3.056c-0.037,0.738-0.071,1.411-0.111,2.2
			c-0.667,0-1.318,0-2.117,0c-0.032-0.646-0.065-1.311-0.106-2.144c-0.402-0.024-0.817-0.049-1.31-0.078
			c-0.053,0.785-0.099,1.453-0.151,2.23c-0.745,0-1.447,0-2.242,0c-0.035-0.71-0.068-1.381-0.109-2.204c-1.668,0-3.331,0-5.243,0
			c0.877-1.215,0.644-3.057,2.784-2.788C29.202,36.482,29.202,32.799,29.202,28.951z M32.272,40.215
			c2.163,0,4.211,0.062,6.253-0.024c1.16-0.049,1.963-0.7,2.015-1.977c0.049-1.178-0.543-2.027-1.683-2.09
			c-2.169-0.119-4.35-0.035-6.585-0.035C32.272,37.501,32.272,38.763,32.272,40.215z M32.238,33.082c1.803,0,3.482,0.019,5.16-0.007
			c1.177-0.018,1.867-0.666,1.997-1.823c0.133-1.187-0.512-2.084-1.597-2.188c-1.831-0.177-3.691-0.049-5.56-0.049
			C32.238,30.4,32.238,31.63,32.238,33.082z"/>
	</g>
	<path style="fill:#8199A4;" d="M35,16.491c10.206,0,18.509,8.303,18.509,18.509S45.206,53.509,35,53.509S16.491,45.206,16.491,35
		S24.794,16.491,35,16.491 M35,11.5c-12.979,0-23.5,10.521-23.5,23.5S22.021,58.5,35,58.5S58.5,47.979,58.5,35S47.979,11.5,35,11.5
		L35,11.5z"/>
</g>
</svg>
