<?xml version="1.0" encoding="iso-8859-1"?>
<!-- Generator: Adobe Illustrator 21.0.0, SVG Export Plug-In . SVG Version: 6.00 Build 0)  -->
<svg version="1.1" id="Layer_1" xmlns="http://www.w3.org/2000/svg" xmlns:xlink="http://www.w3.org/1999/xlink" x="0px" y="0px"
	 viewBox="0 0 70 70" style="enable-background:new 0 0 70 70;" xml:space="preserve">
<rect x="-506.617" y="-296.548" style="display:none;fill:#606060;" width="1366" height="768"/>
<g>
	<path style="fill:#0390F4;" d="M28.795,38.101H12.067l1.93-6.295h16.728L28.795,38.101z M57.93,26.062
		c0,0.521-0.199,1.455-0.598,2.803c-0.367,1.349-0.949,3.354-1.746,6.02c-0.889,2.911-1.547,4.964-1.976,6.158
		c-0.43,1.287-1.042,2.443-1.839,3.47s-1.716,1.846-2.757,2.458l-0.184,0.093c-1.134,0.674-1.961,1.103-2.481,1.286
		c-0.797,0.246-1.854,0.368-3.171,0.368H13.17l2.114-6.848H43.5l4.228-13.74H19.742l2.114-6.847h31.249
		c0.796,0,1.563,0.184,2.298,0.551c0.857,0.43,1.501,1.058,1.93,1.885C57.761,24.576,57.96,25.357,57.93,26.062z"/>
</g>
</svg>
