<?xml version="1.0" encoding="iso-8859-1"?>
<!-- Generator: Adobe Illustrator 21.0.0, SVG Export Plug-In . SVG Version: 6.00 Build 0)  -->
<svg version="1.1" id="Layer_1" xmlns="http://www.w3.org/2000/svg" xmlns:xlink="http://www.w3.org/1999/xlink" x="0px" y="0px"
	 viewBox="0 0 70 70" style="enable-background:new 0 0 70 70;" xml:space="preserve">
<rect x="-174.611" y="-296.548" style="display:none;fill:#606060;" width="1366" height="768"/>
<g>
	<path style="fill:#0390F4;" d="M47.684,50.924c0.102,0.401-0.125,0.804-0.502,0.929c-0.1,0.025-2.436,0.829-5.449,0.829
		c-7.837,0-14.141-4.722-16.25-12.105h-2.387c-0.452,0-0.804-0.377-0.804-0.804v-2.839c0-0.427,0.352-0.804,0.804-0.804h1.658
		c-0.025-0.804-0.025-1.758,0.024-2.637h-1.683c-0.452,0-0.804-0.352-0.804-0.804v-2.863c0-0.452,0.352-0.804,0.804-0.804h2.461
		c2.236-7.032,8.666-11.704,16.176-11.704c2.611,0,4.771,0.553,4.872,0.578c0.2,0.05,0.376,0.2,0.502,0.376
		c0.101,0.176,0.126,0.402,0.075,0.604l-1.08,3.993c-0.1,0.427-0.527,0.678-0.954,0.553c-0.024,0-1.733-0.428-3.517-0.428
		c-4.219,0-7.76,2.286-9.443,6.028h11.754c0.252,0,0.478,0.101,0.629,0.302c0.15,0.176,0.226,0.427,0.176,0.652l-0.604,2.863
		c-0.075,0.377-0.401,0.653-0.803,0.653H31.082c-0.074,0.804-0.05,1.657,0,2.637h11.529c0.25,0,0.477,0.126,0.627,0.302
		c0.151,0.201,0.201,0.452,0.151,0.678l-0.603,2.813c-0.076,0.377-0.402,0.653-0.779,0.653h-9.72
		c1.607,3.918,5.224,6.379,9.494,6.379c2.185,0,3.968-0.603,3.993-0.603c0.201-0.075,0.452-0.051,0.652,0.05
		c0.201,0.126,0.327,0.327,0.377,0.527L47.684,50.924z"/>
</g>
</svg>
