<?xml version="1.0" encoding="iso-8859-1"?>
<!-- Generator: Adobe Illustrator 21.0.0, SVG Export Plug-In . SVG Version: 6.00 Build 0)  -->
<svg version="1.1" id="Layer_1" xmlns="http://www.w3.org/2000/svg" xmlns:xlink="http://www.w3.org/1999/xlink" x="0px" y="0px"
	 viewBox="0 0 70 70" style="enable-background:new 0 0 70 70;" xml:space="preserve">
<rect x="-343.944" y="-296.548" style="display:none;fill:#606060;" width="1366" height="768"/>
<g>
	<path style="fill:#8199A4;" d="M40.219,39.744H30.73v3.294h14.094c0.503,0,0.894,0.391,0.894,0.893v3.572
		c0,0.502-0.391,0.893-0.894,0.893H30.73v5.359c0,0.502-0.391,0.893-0.893,0.893h-4.661c-0.502,0-0.893-0.391-0.893-0.893v-5.359
		h-6.251c-0.502,0-0.893-0.391-0.893-0.893v-3.572c0-0.502,0.391-0.893,0.893-0.893h6.251v-3.294h-6.251
		c-0.502,0-0.893-0.391-0.893-0.893v-4.158c0-0.503,0.391-0.894,0.893-0.894h6.251V16.245c0-0.502,0.391-0.893,0.893-0.893h15.043
		c7.451,0,12.643,5.023,12.643,12.196C52.862,34.721,47.67,39.744,40.219,39.744z M39.66,21.297H30.73V33.8h8.931
		c3.936,0,6.587-2.512,6.587-6.251C46.247,23.809,43.596,21.297,39.66,21.297z"/>
</g>
</svg>
