<?xml version="1.0" encoding="iso-8859-1"?>
<!-- Generator: Adobe Illustrator 21.0.0, SVG Export Plug-In . SVG Version: 6.00 Build 0)  -->
<svg version="1.1" id="Layer_1" xmlns="http://www.w3.org/2000/svg" xmlns:xlink="http://www.w3.org/1999/xlink" x="0px" y="0px"
	 viewBox="0 0 70 70" style="enable-background:new 0 0 70 70;" xml:space="preserve">
<rect x="-261.278" y="-296.548" style="display:none;fill:#606060;" width="1366" height="768"/>
<g>
	<path style="fill:#8199A4;" d="M37.715,52.305V56.7c0,0.452-0.352,0.804-0.804,0.804h-3.391c-0.427,0-0.804-0.352-0.804-0.804
		v-4.396c-5.877-0.828-9.092-4.345-9.218-4.495c-0.251-0.302-0.276-0.729-0.05-1.03l2.587-3.391
		c0.125-0.176,0.352-0.276,0.577-0.302c0.227-0.024,0.452,0.051,0.603,0.227c0.051,0.025,3.566,3.391,8.013,3.391
		c2.461,0,5.123-1.306,5.123-4.145c0-2.411-2.963-3.591-6.354-4.947c-4.521-1.783-10.146-4.044-10.146-10.348
		c0-4.622,3.617-8.439,8.866-9.444V13.3c0-0.452,0.377-0.804,0.804-0.804h3.391c0.452,0,0.804,0.352,0.804,0.804v4.421
		c5.099,0.577,7.811,3.34,7.911,3.44c0.251,0.276,0.302,0.653,0.126,0.954l-2.034,3.667c-0.126,0.227-0.327,0.377-0.578,0.402
		c-0.251,0.05-0.478-0.025-0.678-0.176c-0.025-0.025-3.064-2.713-6.832-2.713c-3.189,0-5.399,1.582-5.399,3.868
		c0,2.662,3.063,3.843,6.63,5.224c4.622,1.783,9.846,3.817,9.846,9.871C46.706,47.382,43.039,51.426,37.715,52.305z"/>
</g>
</svg>
